<svg xmlns="http://www.w3.org/2000/svg" class="material-icons" xml:space="preserve" viewBox="181 440.5 45 45">
    <!--
        THIS VECTOR GRAPHIC IS THE INTELECTUAL PROPERTY OF GITHUB INCORPORATED.
        THIS IS NOT CREATED OR OWNED BY BELLCUBE.
        Copyright © 2022 © 2022 GitHub, Inc.
    -->
    <path fill="#fff" fill-rule="evenodd"
        d="M203.47732825 441.92666895c-11.9919997 0-21.7173328 9.72399976-21.7173328 21.71999946 0 9.59599976 6.22266652 17.73599956 14.85333297 20.60799948 1.08666664.2 1.48266663-.47066665 1.48266663-1.04666664 0-.51599998-.01866667-1.88133328-.02933334-3.69333324-6.04133318 1.31199997-7.31599981-2.91199993-7.31599981-2.91199993-.98799998-2.50933327-2.41199994-3.17733325-2.41199994-3.17733325-1.97199995-1.34666663.14933333-1.31999997.14933333-1.31999997 2.17999994.15333333 3.32666658 2.23866661 3.32666658 2.23866661 1.93733329 3.31866659 5.08399987 2.35999995 6.32133318 1.80399996.19733333-1.40266663.75866664-2.35999994 1.37866663-2.9026666-4.82266655-.54799998-9.89333309-2.41199993-9.89333309-10.7346664 0-2.3706666.84666665-4.31066655 2.23599995-5.82799985-.224-.54933332-.96933331-2.7586666.21333332-5.74799985 0 0 1.82266663-.58399999 5.97199986 2.2266666 1.73199995-.48266665 3.59066657-.72266664 5.4373332-.73199997 1.84533328.00933333 3.70266657.24933332 5.43733319.73199998 4.14666656-2.8106666 5.96666652-2.22666661 5.96666652-2.22666661 1.1853333 2.98933325.43999999 5.19866653.21733333 5.74799985 1.39199996 1.5173333 2.23199994 3.45733325 2.23199994 5.82799986 0 8.34399979-5.07866654 10.17999974-9.91599975 10.71733306.77866665.67066665 1.4733333 1.99599995 1.4733333 4.02133324 0 2.90399992-.02666667 5.24666653-.02666667 5.95866651 0 .58133332.39199999 1.2573333 1.4933333 1.04533331 8.62399978-2.8786666 14.84133296-11.01333306 14.84133296-20.60666615 0-11.9959997-9.7253331-21.71999946-21.7213328-21.71999946" />
</svg>