<svg xmlns="http://www.w3.org/2000/svg" viewBox="0 0 21.954 16.958">
  <!--
    THIS VECTOR GRAPHIC IS THE INTELECTUAL PROPERTY OF BLACK TREE GAMING LIMITED.
    THIS IS NOT CREATED OR OWNED BY BELLCUBE.
    Copyright © 2022 Black Tree Gaming Ltd, GNU General Public License v3.0
  -->
  <path fill="#fff" d="M5.8229071 15.994936c.095547.133984.3040716.388726.659652.566887.3203238.16057.6120753.184642.7709265.186097l-1.9342628.210566zm.2801166-1.348971.01399.02013c.1219974.169776 1.0515477 1.351236 3.1674474 1.156101 0 0-1.0541388.880265-2.2787961.210146-1.0745093-.588117-.9026418-1.38638-.9026418-1.38638zm-.5903746-1.73439s1.5639987 1.36367 4.2695269 1.36367c1.785911 0 2.090712-.274993 2.112238-.296993-.000952-.000725-.342111 1.150825-2.704491 1.149488-2.3668894-.0013-3.6772739-1.662191-3.6772739-2.216165zm9.4891799-2.119811s1.148239 2.505231-4.974948 2.505231c-4.804967 0-5.8682159-2.337805-5.8682159-2.337805l.016356.01259c.1805257.135735 1.8655162 1.323412 5.5541927 1.323412 3.9122322 0 5.2726152-1.503426 5.2726152-1.503426zm4.387823-4.2396215c.156101.2278933.244825.476492.243116.7501763-.01644 1.8190315-4.88252 4.0195222-10.6229047 3.9704122-5.7398505-.04884-6.785461-2.0882024-6.785461-2.0882024s2.1184386.9061314 5.1797544.9324114c3.2016733.02721 9.3113633-1.0547862 10.1689853-2.7701575.690981-.260677 1.293505-.526663 1.81651-.79464zM12.356283 4.625525c1.331641.011321 2.703122.131993 3.891525.3739801-.433176.1669853-.93977.3366722-1.52711.5073882-2.480438-.4183571-6.0547334-.4574376-8.7640363.1538792l-.00244.094077.7189846.8936482c-.6176959-.2547212-1.5230325-.3944935-2.2244018-.4231189.5509435-.4195406 1.1996985-1.044826 1.545284-1.600337l-.035788.9969686c1.2986752-.3721759 3.9159236-1.0171176 6.3979825-.9964854Zm-.659923 2.0325251C3.2104491 8.3907759 1.6752552 6.6527244 1.5653603 6.0968514c-.1102949-.5561392 1.3544809-2.6424934 8.7898557-4.0623327 7.43484-1.4194398 9.609398-.1448598 9.71956.4111463.110161.5556066.107627 2.4799255-8.378416 4.2123851m10.210353-4.4071737c-.189382-.9543705-2.93422-3.3359033-11.732744-1.6810662C1.3755783 2.2246472-.17401925 5.6152724.01456245 6.5693767.20367769 7.5234809 2.2259298 10.626383 12.25677 8.547086c10.02884-2.0233774 9.824787-5.0099129 9.649943-6.2962096"/>
</svg>
