<svg xmlns="http://www.w3.org/2000/svg" class="prefix__material-icons" viewBox="181 440.5 45 45"><defs/><path fill="#fff" fill-rule="evenodd" d="M203.477 441.927c-11.992 0-21.717 9.724-21.717 21.72 0 9.596 6.223 17.736 14.853 20.608 1.087.2 1.483-.471 1.483-1.047 0-.516-.019-1.881-.03-3.693-6.04 1.312-7.315-2.912-7.315-2.912-.988-2.51-2.412-3.178-2.412-3.178-1.972-1.346.149-1.32.149-1.32 2.18.154 3.327 2.239 3.327 2.239 1.937 3.319 5.084 2.36 6.321 1.804.197-1.403.759-2.36 1.379-2.903-4.823-.548-9.894-2.412-9.894-10.734 0-2.371.847-4.311 2.236-5.828-.224-.55-.969-2.759.214-5.748 0 0 1.822-.584 5.972 2.226 1.732-.482 3.59-.722 5.437-.732 1.845.01 3.703.25 5.437.732 4.147-2.81 5.967-2.226 5.967-2.226 1.185 2.989.44 5.198.217 5.748 1.392 1.517 2.232 3.457 2.232 5.828 0 8.344-5.078 10.18-9.916 10.717.779.67 1.474 1.996 1.474 4.021 0 2.904-.027 5.247-.027 5.959 0 .581.392 1.257 1.493 1.045 8.624-2.878 14.842-11.013 14.842-20.606 0-11.996-9.726-21.72-21.722-21.72"/></svg>