<svg xmlns="http://www.w3.org/2000/svg" fill-rule="evenodd" clip-rule="evenodd" viewBox="2.045 6.742 44.363 34.405"><defs/><path fill="#fff" d="M25.653 20.295C8.537 23.802 5.44 20.284 5.219 19.158c-.222-1.126 2.732-5.35 17.729-8.224 14.996-2.874 19.18-.594 19.604.832.32 1.298.217 5.021-16.899 8.529m20.594-8.923c-.614-2.441-5.918-6.753-23.665-3.403-17.746 3.35-20.986 9.829-20.491 12.146.399 2.183 4.46 8.213 24.692 4.004 20.228-4.096 20.026-10.513 19.464-12.747zm-35.798 17.63s3.345 2.705 11.236 2.705 10.635-3.044 10.635-3.044 2.316 5.072-10.034 5.072c-9.692 0-11.837-4.733-11.837-4.733"/><path fill="#fff" d="M13.18 32.955s3.155 2.761 8.611 2.761c3.752 0 4.263-.604 4.263-.604-.005.001-.693 2.333-5.457 2.33-4.774-.004-7.417-3.366-7.417-4.487m24.326-11.266c-1.73 3.473-14.053 5.663-20.51 5.608-6.175-.053-10.447-1.888-10.447-1.888s2.109 4.129 13.686 4.227c11.578.099 21.393-4.355 21.426-8.038.003-.554-.175-1.057-.49-1.519a35.384 35.384 0 01-3.665 1.61M26.984 16.18C19.96 16.121 12.4 18.715 12.4 18.715c5.586-1.685 13.819-1.687 19.353-.751a38.537 38.537 0 003.08-1.027c-2.397-.49-5.163-.734-7.849-.757"/><path fill="#fff" d="M11.035 19.419c1.415.058 3.241.341 4.487.857l-1.45-1.809.08-2.287c-.698 1.123-2.006 2.389-3.117 3.239m5.656 21.302a3.539 3.539 0 01-1.555-.377 3.647 3.647 0 01-1.33-1.148l-1.016 1.951m1.581-4.681s1.821 2.807 6.417 2.381c0 0-2.126 1.782-4.596.425-2.168-1.19-1.821-2.806-1.821-2.806"/></svg>